<mxfile host="app.diagrams.net" modified="2023-07-27T05:29:26.396Z" agent="Mozilla/5.0 (Windows NT 10.0; Win64; x64) AppleWebKit/537.36 (KHTML, like Gecko) Chrome/114.0.0.0 Safari/537.36" version="21.6.5" etag="rbQZn5R2Id6QlpGh6YA3" type="github">
  <diagram name="第 1 页" id="ZQOok393BUI-sjCA4brk">
    <mxGraphModel>
      <root>
        <mxCell id="0" />
        <mxCell id="1" parent="0" />
      </root>
    </mxGraphModel>
  </diagram>
</mxfile>
